<?xml version="1.0" encoding="utf-8"?>
<svg viewBox="0 0 144 144" xmlns="http://www.w3.org/2000/svg">
  <g transform="matrix(1, 0, 0, 1, 22, 22.000000000000007)">
    <path fill="#4c4c4c" d="M 0 68.218 L 21.706 68.218 L 23.256 49.613 L 3.1 44.962 L 0 68.218 Z M 3.876 41.861 L 23.256 46.512 L 27.907 30.233 L 11.628 21.707 L 3.876 41.861 Z M 13.178 18.605 L 28.682 27.132 L 41.086 18.605 L 29.458 5.427 L 13.178 18.605 Z M 100 68.218 L 78.295 68.218 L 76.744 49.613 L 96.9 44.962 L 100 68.218 Z M 96.124 41.861 L 76.744 46.512 L 72.094 30.233 L 88.372 21.707 L 96.124 41.861 Z M 86.821 18.605 L 71.317 27.132 L 58.915 18.605 L 70.543 5.427 L 86.821 18.605 Z M 33.334 3.101 L 44.961 17.054 L 55.813 17.054 L 65.892 3.101 L 55.813 0 L 44.689 0 L 33.334 3.101 Z"/>
    <path fill="#9c0000" d="M 0 68.218 L 21.706 68.218 L 23.256 49.613 L 3.1 44.962 L 0 68.218 Z"/>
    <path fill="#b50808" d="M 3.876 41.861 L 23.256 46.512 L 27.907 30.233 L 11.628 21.707 L 3.876 41.861 Z"/>
    <path fill="#c61818" d="M 13.178 18.605 L 28.682 27.132 L 41.086 18.605 L 29.458 5.427 L 13.178 18.605 Z"/>
    <path fill="#9c0000" d="M 100 68.218 L 78.295 68.218 L 76.744 49.613 L 96.9 44.962 L 100 68.218 Z"/>
    <path fill="#b50808" d="M 96.124 41.861 L 76.744 46.512 L 72.094 30.233 L 88.372 21.707 L 96.124 41.861 Z"/>
    <path fill="#c61818" d="M 86.821 18.605 L 71.317 27.132 L 58.915 18.605 L 70.543 5.427 L 86.821 18.605 Z"/>
    <path fill="#ce3129" d="M 33.334 3.101 L 44.961 17.054 L 55.813 17.054 L 65.892 3.101 L 55.813 0 L 44.689 0 L 33.334 3.101 Z"/>
    <path fill="#9c0000" d="M 0 80 L 0 98.596 L 3.21 98.596 L 3.21 91.955 L 9.261 98.596 L 12.151 98.596 L 12.151 97.292 L 6.875 91.807 C 8.25 91.633 9.335 90.967 10.134 89.815 C 10.933 88.663 11.347 87.362 11.364 85.904 C 11.39 84.212 10.844 82.812 9.74 81.71 C 8.637 80.608 6.822 80.04 4.28 80.001 L 0 80 Z M 14.845 80 L 14.845 98.596 L 25.175 98.596 L 25.175 95.668 L 18.054 95.668 L 18.054 90.355 L 23.281 90.355 L 23.281 87.465 L 18.054 87.465 L 18.054 82.866 L 24.88 82.866 L 24.88 80 L 14.845 80 Z M 28.275 80 L 28.275 98.596 L 33.588 98.596 C 35.33 98.567 36.735 98.109 37.793 97.218 C 38.852 96.328 39.618 95.177 40.093 93.775 C 40.568 92.373 40.79 90.887 40.782 89.323 C 40.796 87.777 40.6 86.308 40.18 84.895 C 39.759 83.482 39.041 82.322 38.027 81.415 C 37.013 80.507 35.613 80.031 33.846 80 L 28.275 80 Z M 3.209 82.779 L 4.28 82.779 C 5.613 82.789 6.575 83.059 7.182 83.603 C 7.789 84.148 8.089 84.91 8.08 85.879 C 8.078 86.883 7.817 87.735 7.28 88.437 C 6.744 89.139 5.944 89.5 4.894 89.532 C 4.489 89.515 4.11 89.459 3.763 89.347 C 3.416 89.235 3.231 89.166 3.209 89.15 L 3.209 82.779 Z M 31.459 82.779 L 33.735 82.779 C 34.86 82.814 35.696 83.195 36.244 83.923 C 36.791 84.651 37.146 85.517 37.314 86.531 C 37.481 87.544 37.551 88.494 37.535 89.384 C 37.548 90.341 37.461 91.297 37.277 92.237 C 37.086 93.221 36.704 94.057 36.133 94.746 C 35.562 95.434 34.714 95.786 33.587 95.816 L 31.46 95.816 L 31.459 82.779 Z"/>
    <path fill="#ce3129" d="M 44.595 80 L 44.595 98.596 L 47.817 98.596 L 47.817 88.351 L 47.571 86.198 L 51.888 98.595 L 54.544 98.595 L 58.849 86.198 L 58.615 88.351 L 58.615 98.595 L 61.837 98.595 L 61.837 80 L 58.049 80 L 53.622 92.606 C 53.497 92.981 53.394 93.363 53.315 93.75 C 53.249 94.072 53.215 94.239 53.216 94.255 C 53.217 94.241 53.183 94.079 53.118 93.763 C 53.052 93.446 52.945 93.062 52.798 92.606 L 48.37 80 L 44.595 80 Z M 66.08 80 L 66.08 98.596 L 69.266 98.596 L 69.266 80 L 66.08 80 Z M 73.373 80 L 73.373 98.596 L 76.596 98.596 L 76.596 88.031 C 76.59 87.464 76.553 86.897 76.485 86.334 C 76.425 85.852 76.395 85.609 76.387 85.584 L 82.253 98.596 L 85.352 98.596 L 85.352 80 L 82.142 80 C 82.142 84.026 82.142 88.052 82.142 92.077 C 82.136 92.032 82.045 91.715 81.884 91.131 C 81.721 90.536 81.519 89.953 81.281 89.384 L 77.149 80 L 73.373 80 Z M 89.669 80 L 89.669 98.596 L 100 98.596 L 100 95.668 L 92.879 95.668 L 92.879 90.355 L 98.106 90.355 L 98.106 87.465 L 92.879 87.465 L 92.879 82.866 L 99.705 82.866 L 99.705 80 L 89.669 80 Z"/>
  </g>
</svg>
